<mxfile host="app.diagrams.net" modified="2024-06-25T12:32:15.652Z" agent="Mozilla/5.0 (X11; Linux x86_64; rv:126.0) Gecko/20100101 Firefox/126.0" etag="3f3yY4prRynzQYr9G6Q1" version="24.6.2" type="device">
  <diagram name="Page-1" id="GTixVxNRNrMLOzKaGkxr">
    <mxGraphModel dx="566" dy="273" grid="1" gridSize="10" guides="1" tooltips="1" connect="1" arrows="1" fold="1" page="1" pageScale="1" pageWidth="850" pageHeight="1100" math="0" shadow="0">
      <root>
        <mxCell id="0" />
        <mxCell id="1" parent="0" />
        <mxCell id="bWuwE-mD64ckYfChVPeq-4" value="Računalo domaćin" style="shape=umlFrame;whiteSpace=wrap;pointerEvents=0;width=159;height=26;fontFamily=Times New Roman;rounded=0;direction=east;html=1;labelBorderColor=none;strokeColor=default;align=center;verticalAlign=middle;fontSize=12;fontColor=default;fillColor=default;container=0;" parent="1" vertex="1">
          <mxGeometry x="200" y="280" width="320" height="200" as="geometry" />
        </mxCell>
        <mxCell id="bWuwE-mD64ckYfChVPeq-3" value="kontejner 1" style="rounded=1;whiteSpace=wrap;html=1;pointerEvents=0;strokeColor=default;align=center;verticalAlign=top;fontFamily=Times New Roman;fontSize=12;fontColor=default;fillColor=default;container=0;labelPosition=center;verticalLabelPosition=middle;" parent="1" vertex="1">
          <mxGeometry x="230" y="320" width="60" height="60" as="geometry" />
        </mxCell>
        <mxCell id="bWuwE-mD64ckYfChVPeq-8" value="..." style="rounded=1;whiteSpace=wrap;html=1;pointerEvents=0;strokeColor=default;align=center;verticalAlign=middle;fontFamily=Times New Roman;fontSize=12;fontColor=default;fillColor=default;container=0;" parent="1" vertex="1">
          <mxGeometry x="330" y="320" width="60" height="60" as="geometry" />
        </mxCell>
        <mxCell id="bWuwE-mD64ckYfChVPeq-12" value="vxcan1" style="rounded=1;whiteSpace=wrap;html=1;pointerEvents=0;strokeColor=default;align=center;verticalAlign=middle;fontFamily=Times New Roman;fontSize=12;fontColor=default;fillColor=default;container=0;" parent="1" vertex="1">
          <mxGeometry x="230" y="360" width="60" height="20" as="geometry" />
        </mxCell>
        <mxCell id="bWuwE-mD64ckYfChVPeq-13" value="vxcan1_par" style="rounded=1;whiteSpace=wrap;html=1;pointerEvents=0;strokeColor=default;align=center;verticalAlign=middle;fontFamily=Times New Roman;fontSize=12;fontColor=default;fillColor=default;container=0;" parent="1" vertex="1">
          <mxGeometry x="230" y="380" width="60" height="20" as="geometry" />
        </mxCell>
        <mxCell id="bWuwE-mD64ckYfChVPeq-14" value="kontejner N" style="rounded=1;whiteSpace=wrap;html=1;pointerEvents=0;strokeColor=default;align=center;verticalAlign=top;fontFamily=Times New Roman;fontSize=12;fontColor=default;fillColor=default;container=0;labelPosition=center;verticalLabelPosition=middle;" parent="1" vertex="1">
          <mxGeometry x="430" y="320" width="60" height="60" as="geometry" />
        </mxCell>
        <mxCell id="bWuwE-mD64ckYfChVPeq-16" value="vethN" style="rounded=1;whiteSpace=wrap;html=1;pointerEvents=0;strokeColor=default;align=center;verticalAlign=middle;fontFamily=Times New Roman;fontSize=12;fontColor=default;fillColor=default;container=0;" parent="1" vertex="1">
          <mxGeometry x="430" y="360" width="60" height="20" as="geometry" />
        </mxCell>
        <mxCell id="bWuwE-mD64ckYfChVPeq-17" value="vethN par" style="rounded=1;whiteSpace=wrap;html=1;pointerEvents=0;strokeColor=default;align=center;verticalAlign=middle;fontFamily=Times New Roman;fontSize=12;fontColor=default;fillColor=default;container=0;" parent="1" vertex="1">
          <mxGeometry x="430" y="380" width="60" height="20" as="geometry" />
        </mxCell>
        <mxCell id="-TkATDLglnmFtO3N4jry-1" value="vcan0" style="rounded=1;whiteSpace=wrap;html=1;fontFamily=Times New Roman;" vertex="1" parent="1">
          <mxGeometry x="340" y="440" width="40" height="20" as="geometry" />
        </mxCell>
        <mxCell id="-TkATDLglnmFtO3N4jry-2" value="..." style="rounded=1;whiteSpace=wrap;html=1;pointerEvents=0;strokeColor=default;align=center;verticalAlign=middle;fontFamily=Times New Roman;fontSize=12;fontColor=default;fillColor=default;container=0;" vertex="1" parent="1">
          <mxGeometry x="330" y="380" width="60" height="20" as="geometry" />
        </mxCell>
        <mxCell id="-TkATDLglnmFtO3N4jry-6" value="cangw" style="endArrow=classic;startArrow=classic;html=1;rounded=0;entryX=0.5;entryY=1;entryDx=0;entryDy=0;exitX=0;exitY=0.5;exitDx=0;exitDy=0;fontFamily=Times New Roman;" edge="1" parent="1" source="-TkATDLglnmFtO3N4jry-1" target="bWuwE-mD64ckYfChVPeq-13">
          <mxGeometry width="50" height="50" relative="1" as="geometry">
            <mxPoint x="230" y="540" as="sourcePoint" />
            <mxPoint x="280" y="490" as="targetPoint" />
          </mxGeometry>
        </mxCell>
        <mxCell id="-TkATDLglnmFtO3N4jry-7" value="cangw" style="endArrow=classic;startArrow=classic;html=1;rounded=0;entryX=1;entryY=0.5;entryDx=0;entryDy=0;exitX=0.5;exitY=1;exitDx=0;exitDy=0;fontFamily=Times New Roman;" edge="1" parent="1" source="bWuwE-mD64ckYfChVPeq-17" target="-TkATDLglnmFtO3N4jry-1">
          <mxGeometry width="50" height="50" relative="1" as="geometry">
            <mxPoint x="460" y="470" as="sourcePoint" />
            <mxPoint x="380" y="520" as="targetPoint" />
          </mxGeometry>
        </mxCell>
        <mxCell id="-TkATDLglnmFtO3N4jry-11" value="cangw" style="endArrow=classic;startArrow=classic;html=1;rounded=0;entryX=0.5;entryY=1;entryDx=0;entryDy=0;fontFamily=Times New Roman;" edge="1" parent="1" target="-TkATDLglnmFtO3N4jry-2">
          <mxGeometry width="50" height="50" relative="1" as="geometry">
            <mxPoint x="360" y="440" as="sourcePoint" />
            <mxPoint x="360" y="470" as="targetPoint" />
          </mxGeometry>
        </mxCell>
        <mxCell id="-TkATDLglnmFtO3N4jry-12" value="..." style="rounded=1;whiteSpace=wrap;html=1;pointerEvents=0;strokeColor=default;align=center;verticalAlign=middle;fontFamily=Times New Roman;fontSize=12;fontColor=default;fillColor=default;container=0;" vertex="1" parent="1">
          <mxGeometry x="330" y="360" width="60" height="20" as="geometry" />
        </mxCell>
      </root>
    </mxGraphModel>
  </diagram>
</mxfile>
